<svg xmlns="http://www.w3.org/2000/svg" width="1600" height="1000" viewBox="0 0 1600 1000">
  <defs>
    <linearGradient id="bg" x1="0" x2="1" y1="0" y2="1">
      <stop offset="0" stop-color="#101827"/>
      <stop offset="1" stop-color="#071016"/>
    </linearGradient>
  </defs>
  <rect width="1600" height="1000" fill="url(#bg)"/>
  <g opacity=".18" stroke="#dcecff" stroke-width="1">
    <path d="M0 720h1600M0 650h1600M0 580h1600M0 510h1600"/>
    <path d="M160 0v1000M320 0v1000M480 0v1000M640 0v1000M800 0v1000M960 0v1000M1120 0v1000M1280 0v1000M1440 0v1000"/>
  </g>
  <circle cx="800" cy="480" r="190" fill="#69dca4" opacity=".16"/>
  <rect x="650" y="300" width="300" height="320" rx="32" fill="#dcecff" opacity=".88"/>
  <circle cx="735" cy="410" r="30" fill="#101827"/>
  <circle cx="865" cy="410" r="30" fill="#101827"/>
  <path d="M735 510c55 42 110 42 165 0" fill="none" stroke="#101827" stroke-width="18" stroke-linecap="round"/>
  <text x="800" y="760" text-anchor="middle" fill="#eff5ff" font-family="Arial, sans-serif" font-size="42" font-weight="700">Product Viewer Loading</text>
</svg>
