<svg xmlns="http://www.w3.org/2000/svg" viewBox="0 0 720 420">
  <defs>
    <linearGradient id="bg" x1="0" x2="1" y1="1" y2="0">
      <stop offset="0" stop-color="#17311f"/>
      <stop offset="0.55" stop-color="#23462a"/>
      <stop offset="1" stop-color="#0d1722"/>
    </linearGradient>
    <radialGradient id="glow" cx="64%" cy="36%" r="50%">
      <stop offset="0" stop-color="#d8f3a2" stop-opacity="0.75"/>
      <stop offset="1" stop-color="#7cb342" stop-opacity="0"/>
    </radialGradient>
  </defs>
  <rect width="720" height="420" rx="28" fill="url(#bg)"/>
  <circle cx="460" cy="150" r="180" fill="url(#glow)"/>
  <path d="M0 318 C140 250 260 345 410 292 C535 248 620 292 720 235 L720 420 L0 420 Z" fill="#102918"/>
  <g stroke="#b7ef7a" stroke-width="7" stroke-linecap="round">
    <path d="M112 350 C100 300 112 255 145 213"/>
    <path d="M166 352 C158 302 182 254 224 214"/>
    <path d="M228 356 C238 303 275 263 324 230"/>
    <path d="M304 358 C312 304 356 254 420 212"/>
    <path d="M390 358 C420 306 465 265 530 230"/>
    <path d="M500 360 C548 315 586 278 648 260"/>
  </g>
  <g fill="#d8f3a2">
    <circle cx="146" cy="210" r="8"/>
    <circle cx="224" cy="214" r="8"/>
    <circle cx="420" cy="212" r="8"/>
    <circle cx="648" cy="260" r="8"/>
  </g>
  <text x="42" y="70" fill="#f7fee7" font-family="Inter, Arial" font-size="34" font-weight="800">Shader Grass System</text>
  <text x="44" y="110" fill="#d8f3a2" font-family="Inter, Arial" font-size="18">GPU instancing / wind / growth / film-ready scene</text>
</svg>
